<svg xmlns="http://www.w3.org/2000/svg" width="64" height="64" viewBox="52 40 216 216">
<rect width="320" height="320" fill="#ebc85a"/>
<path d="M61.8223046875 175.0Q59.9141015625 175.0 60.3368359375 172.7431640625L82.1877734375 71.84546875Q82.6105078125 70.2 84.284609375 70.2H109.935Q111.6091015625 70.2 112.0318359375 71.84546875L133.7800390625 172.611796875Q134.334140625 175.0 132.4259375 175.0H110.0951171875Q108.47828125000001 175.0 108.15828125 173.3831640625L99.92750000000001 114.0870703125Q99.2016015625 108.6184375 98.55570312500001 103.16412109375Q97.9098046875 97.7098046875 97.24117187499999 92.24117187499999H96.921171875Q96.2525390625 97.7098046875 95.6352734375 103.16412109375Q95.0180078125 108.6184375 94.1607421875 114.115703125L85.535859375 173.251796875Q85.375859375 175.0 83.4962890625 175.0ZM84.737578125 155.02015625 87.83988281250001 136.269921875H105.665625L109.08792968750001 155.02015625ZM162.57511718749998 175.96Q148.6113671875 175.96 142.8176953125 169.7486328125Q137.0240234375 163.537265625 138.3494921875 150.9376953125Q138.6122265625 148.8694921875 140.2576953125 148.8694921875H157.219296875Q159.230234375 148.8694921875 158.9675 151.0404296875Q158.6761328125 155.5676171875 159.50224609375 157.65099609375Q160.328359375 159.734375 162.6323828125 159.734375Q166.5886328125 159.734375 166.5886328125 154.0349609375Q166.5886328125 150.6631640625 165.2286328125 148.6513671875Q163.8686328125 146.63957031249998 160.6686328125 144.3423046875L148.5322265625 135.4968359375Q143.70359375 131.9195703125 140.87244140625 127.23662109375Q138.0412890625 122.55367187499999 138.0412890625 115.93640625Q138.0412890625 105.3258984375 144.24337890625 99.88337890625Q150.44546875 94.440859375 163.1578515625 94.440859375Q176.5843359375 94.440859375 182.65505859375 100.2749609375Q188.72578125 106.1090625 188.553984375 117.38820312499999Q188.553984375 119.45640625 186.5144140625 119.45640625H169.8441796875Q168.86734375 119.45640625 168.33597656249998 118.83662109375001Q167.80460937499998 118.21683593750001 167.964609375 117.068203125Q168.284609375 113.844609375 167.4441796875 112.24123046875Q166.60375 110.6378515625 164.4142578125 110.6378515625Q160.86390625 110.6378515625 160.86390625 115.01683593749999Q160.86390625 117.70316406250001 161.9898046875 119.43791015625Q163.115703125 121.17265624999999 165.89296875 123.2358203125L177.34390625 131.424453125Q183.309375 135.64171875 186.3603125 140.6185546875Q189.41125 145.595390625 189.41125 153.0294921875Q189.41125 164.451796875 182.852109375 170.20589843750003Q176.29296875 175.96 162.57511718749998 175.96ZM199.8467578125 175.0Q198.06992187499998 175.0 198.06992187499998 172.9031640625V72.29683593749999Q198.06992187499998 70.2 199.8467578125 70.2H224.1397265625Q240.761171875 70.2 248.72326171875 78.8795703125Q256.6853515625 87.559140625 256.6853515625 105.6441796875Q256.6853515625 122.7405859375 248.44621093749998 131.70310546875Q240.20707031249998 140.665625 224.57425781249998 140.665625H221.73800781249997V172.9031640625Q221.73800781249997 175.0 219.961171875 175.0ZM221.73800781249997 119.71078125H224.1397265625Q228.650078125 119.71078125 230.833671875 116.20423828125Q233.017265625 112.6976953125 233.017265625 105.7014453125Q233.017265625 98.0079296875 230.96503906249998 94.58138671875Q228.91281249999997 91.15484375 224.2542578125 91.15484375H221.73800781249997Z" fill="#1c1b19"/>
</svg>
